# xmcd
#
# Track frame offsets: 
#        150
#        13270
#        29967
#        43355
#        57015
#        73580
#        86950
#        99792
#        111527
#        124725
#        139650
#        152102
#        169107
#        185155
#        203297
#        213000
#
# Disc length: 3088 seconds
#
# Revision: 0
# Processed by: cddbd v1.4PL0 Copyright (c) Steve Scherf et al.
# Submitted via: ExactAudioCopy v0.95a4
#
DISCID=e90c0e10
DTITLE=Various Artist - Today's Country Gold '94
DYEAR=1994
DGENRE=Country
TTITLE0=Mark Collie - Shame, Shame, Shame
TTITLE1=Tanya Tucker and Delbert McClinton - Tell Me About It
TTITLE2=Doug Stone - Warning Labels
TTITLE3=Joan Kennedy - Breakin' All Over Town
TTITLE4=Joel Feeney - Say The Word
TTITLE5=Anita Perras - Way Beyond The Blue
TTITLE6=Chris Ledoux - Cadillac Ranch
TTITLE7=Robert Ellis Orrall - Boom! It Was Over
TTITLE8=Mark Chesnutt - It Sure Is Monday
TTITLE9=Suzy Bogguss - Just Like The Weather
TTITLE10=Jim Witter - Distant Drums
TTITLE11=Greg Paul - Papa
TTITLE12=Gary Fjellgaard - Train Of Dreams
TTITLE13=Cassandra Vasik - Sadly Mistaken
TTITLE14=Prairie Oyster - One Precious Love
TTITLE15=Vince Gill - No Future In The Past
EXTD=
EXTT0=
EXTT1=
EXTT2=
EXTT3=
EXTT4=
EXTT5=
EXTT6=
EXTT7=
EXTT8=
EXTT9=
EXTT10=
EXTT11=
EXTT12=
EXTT13=
EXTT14=
EXTT15=
PLAYORDER=
